:SAMPLES-PER-SECOND 30
:FULLY-SPECIFIED
:DEGREES
427
root  -36.4739 39.5702 -4.71518 -20.4942 -76.8822 22.3891
RightUpLeg  -23.1609 -13.0719 -6.48806
RightLeg  6.98157 -23.1107 5.85903
RightFoot  13.144 2.68399 -11.898
RightToes  0.00048216 0.542163 -0.142577
Spine  49.3202 -4.60419 10.7181
Spine1  6.1992 0.419181 -2.29579
HEad  -28.2283 -7.25441 0.141247
LeftShoulder1  12.4121 -20.8221 -44.3894
LeftArm  -13.9201 -4.4984 -29.0526
LeftForeArm  26.9691 -8.92869 -4.99322
LeftHand  -0.25398 0.0180481 5.50724
RightShoulder  7.24809 14.2828 34.7708
RightArm  -4.03926 25.4386 31.5514
RightForeArm  -3.71035 3.74988 9.67907
RightHand  -3.10747 7.66206 -27.5349
LeftUpLeg  -24.3228 5.13399 -1.40569
LeftLeg  44.9202 7.91012 8.73686
LeftFoot  -4.70437 0.330501 -5.23248
LeftToes  1.06244e-005 4.65855e-005 -8.18506e-006
428
root  -35.8722 39.4106 -4.58649 -20.5747 -76.9924 20.8718
RightUpLeg  -21.9749 -12.9328 -6.67665
RightLeg  6.07734 -23.0344 6.03226
RightFoot  14.1719 2.69403 -11.4189
RightToes  0.00048216 0.542163 -0.142577
Spine  47.6157 -4.62336 10.9282
Spine1  6.76127 0.452011 -2.44607
HEad  -26.3895 -6.27353 -0.835664
LeftShoulder1  12.5495 -20.2103 -46.1215
LeftArm  -13.7421 -0.954169 -27.2861
LeftForeArm  25.7419 -10.2252 -4.91909
LeftHand  -0.25398 0.0180481 5.50724
RightShoulder  7.41023 14.0085 36.3073
RightArm  -3.6709 21.1832 31.58
RightForeArm  -4.08542 1.91657 9.63367
RightHand  -3.44988 8.50981 -28.6455
LeftUpLeg  -20.6937 4.59794 -0.881981
LeftLeg  49.0327 6.74423 8.68508
LeftFoot  -7.23531 0.212175 -4.71415
LeftToes  1.06244e-005 4.65855e-005 -8.18506e-006
429
root  -35.2188 39.2363 -4.43688 -20.8897 -77.3279 19.8928
RightUpLeg  -21.0879 -12.7231 -6.79407
RightLeg  4.77874 -22.8944 6.40045
RightFoot  15.5629 2.75421 -11.0198
RightToes  0.00048216 0.542163 -0.142577
Spine  45.7769 -4.57804 11.0318
Spine1  7.18397 0.556323 -2.84089
HEad  -24.2393 -4.87517 -1.79889
LeftShoulder1  12.7871 -19.5171 -48.4711
LeftArm  -12.7692 1.71356 -24.6775
LeftForeArm  24.4633 -11.0936 -5.02991
LeftHand  -0.25398 0.0180481 5.50724
RightShoulder  7.50216 13.6171 37.7685
RightArm  -2.50014 16.4027 31.8662
RightForeArm  -6.29684 1.71689 10.0003
RightHand  -3.80015 9.38886 -29.652
LeftUpLeg  -16.5584 4.79833 -0.55661
LeftLeg  50.7498 6.15713 8.4669
LeftFoot  -9.52721 0.126904 -4.4
LeftToes  1.06244e-005 4.65855e-005 -8.18506e-006
430
root  -34.5081 39.0466 -4.26059 -21.5337 -77.604 19.5605
RightUpLeg  -20.5615 -12.5314 -7.0131
RightLeg  3.38118 -22.7899 6.72947
RightFoot  17.0373 2.78105 -10.4937
RightToes  0.00048216 0.542163 -0.142577
Spine  43.6502 -4.45894 10.9416
Spine1  7.61097 0.580344 -3.17412
HEad  -22.0876 -3.28254 -2.75375
LeftShoulder1  12.8375 -18.8514 -50.1212
LeftArm  -11.934 3.89219 -22.9696
LeftForeArm  24.1412 -11.7505 -5.04796
LeftHand  -0.25398 0.0180481 5.50724
RightShoulder  7.49131 13.1756 38.8233
RightArm  -0.951341 10.9396 32.1505
RightForeArm  -9.90847 3.3603 10.6578
RightHand  -3.64353 9.19407 -28.8207
LeftUpLeg  -12.2902 5.19445 -0.564081
LeftLeg  50.3673 5.66277 7.7341
LeftFoot  -11.447 0.0639355 -4.57211
LeftToes  1.06244e-005 4.65855e-005 -8.18506e-006
431
root  -33.7157 38.8102 -4.06185 -22.1977 -77.6181 19.371
RightUpLeg  -20.3157 -12.4444 -7.42411
RightLeg  2.16205 -22.9573 6.86843
RightFoot  18.2557 2.61027 -9.37436
RightToes  0.00048216 0.542163 -0.142577
Spine  41.2825 -4.33571 10.5881
Spine1  8.02639 0.353149 -3.19625
HEad  -20.1679 -1.94035 -3.9785
LeftShoulder1  12.6778 -18.2968 -50.7566
LeftArm  -11.7457 5.94526 -22.4801
LeftForeArm  24.8597 -12.5393 -4.82933
LeftHand  -0.25398 0.0180481 5.50724
RightShoulder  7.38956 12.6775 39.5461
RightArm  0.491672 5.19164 32.4429
RightForeArm  -10.7705 5.72887 11.0192
RightHand  -2.84892 7.56026 -25.4808
LeftUpLeg  -8.13605 5.18778 -0.891949
LeftLeg  48.5316 4.52842 5.91785
LeftFoot  -12.9477 -0.00761128 -5.97649
LeftToes  1.06244e-005 4.65855e-005 -8.18506e-006
432
root  -32.8309 38.548 -3.86443 -22.994 -77.3852 19.1334
RightUpLeg  -19.8092 -12.5616 -8.10255
RightLeg  0.713034 -23.4323 7.16589
RightFoot  19.1799 2.1317 -7.31806
RightToes  0.00048216 0.542163 -0.142577
Spine  39.0205 -4.18195 9.82688
Spine1  8.21057 -0.0408163 -3.00561
HEad  -17.9318 -1.02682 -4.61442
LeftShoulder1  12.4815 -17.8454 -51.0271
LeftArm  -11.8062 7.77366 -22.2539
LeftForeArm  26.0002 -13.4067 -4.52621
LeftHand  -0.25398 0.0180481 5.50724
RightShoulder  7.22497 12.1389 40.0421
RightArm  2.01618 -0.487428 32.8884
RightForeArm  -6.86708 7.51613 10.7529
RightHand  -2.0088 5.57022 -21.4513
LeftUpLeg  -3.9759 4.92839 -1.48635
LeftLeg  45.3745 3.32638 4.02118
LeftFoot  -15.1614 -0.187187 -8.1796
LeftToes  1.06244e-005 4.65855e-005 -8.18506e-006
433
root  -31.8473 38.3073 -3.68807 -24.919 -77.1067 19.7023
RightUpLeg  -18.7663 -12.9574 -9.09936
RightLeg  -0.882764 -23.9487 7.7348
RightFoot  18.9034 1.19362 -3.92198
RightToes  0.00048216 0.542163 -0.142577
Spine  37.2292 -3.77893 8.39064
Spine1  8.14202 -0.407431 -2.62103
HEad  -15.0437 -0.636739 -4.10366
LeftShoulder1  12.2933 -17.4637 -51.1721
LeftArm  -11.8261 9.07122 -22.06
LeftForeArm  27.2501 -14.2032 -4.26689
LeftHand  -0.25398 0.0180481 5.50724
RightShoulder  7.03279 11.6658 40.2079
RightArm  2.70901 -5.80158 33.4216
RightForeArm  -0.594913 8.01381 10.2495
RightHand  -1.61157 4.34437 -19.4263
LeftUpLeg  0.0725713 5.15712 -2.49022
LeftLeg  41.0246 3.43111 3.5609
LeftFoot  -19.3784 -0.502667 -8.90959
LeftToes  1.06244e-005 4.65855e-005 -8.18506e-006
434
root  -30.7235 38.0765 -3.54625 -28.1154 -76.7915 21.3006
RightUpLeg  -17.4216 -13.5958 -10.3878
RightLeg  -2.05029 -24.4822 8.21921
RightFoot  15.695 -0.233521 1.50824
RightToes  0.00048216 0.542163 -0.142577
Spine  35.9862 -3.11635 6.22607
Spine1  8.13287 -0.776553 -1.8902
HEad  -12.068 -0.419637 -3.07048
LeftShoulder1  11.9979 -17.1042 -50.819
LeftArm  -12.073 9.58791 -22.3934
LeftForeArm  28.5153 -15.0972 -3.99986
LeftHand  -0.25398 0.0180481 5.50724
RightShoulder  6.86985 11.3588 40.0782
RightArm  2.04899 -10.3493 33.8603
RightForeArm  3.82254 7.58914 9.83676
RightHand  -1.46387 3.42826 -19.4235
LeftUpLeg  2.96726 5.96443 -3.99132
LeftLeg  37.0833 5.24718 4.61455
LeftFoot  -24.4325 -0.616475 -6.71498
LeftToes  1.06244e-005 4.65855e-005 -8.18506e-006
435
root  -29.4688 37.8168 -3.45775 -31.1563 -76.1826 22.6226
RightUpLeg  -15.7234 -14.4147 -11.9644
RightLeg  -3.2392 -25.0502 8.7603
RightFoot  9.56044 -1.61883 9.24414
RightToes  0.00048216 0.542163 -0.142577
Spine  35.1758 -2.53092 3.6591
Spine1  8.37971 -1.28751 -1.02282
HEad  -9.82275 0.0744091 -2.31386
LeftShoulder1  11.5675 -16.7249 -49.9234
LeftArm  -12.7162 9.25407 -23.0442
LeftForeArm  29.3344 -16.3077 -3.69786
LeftHand  -0.25398 0.0180481 5.50724
RightShoulder  6.75533 11.1757 39.8858
RightArm  0.276923 -13.973 34.2011
RightForeArm  5.88304 7.21371 9.34112
RightHand  -1.21571 2.12434 -18.8403
LeftUpLeg  3.59027 6.63427 -5.62731
LeftLeg  36.0852 7.33277 6.0941
LeftFoot  -27.5788 -0.291274 -3.15912
LeftToes  1.06244e-005 4.65855e-005 -8.18506e-006
436
root  -28.187 37.5692 -3.42415 -33.1997 -75.3608 22.9768
RightUpLeg  -13.8373 -15.4108 -13.7428
RightLeg  -4.4392 -25.0217 9.57512
RightFoot  3.41837 -2.22491 17.1141
RightToes  0.00048216 0.542163 -0.142577
Spine  34.6906 -2.18424 1.17074
Spine1  8.68832 -1.81629 -0.603104
HEad  -8.41073 0.812578 -2.01893
LeftShoulder1  11.1489 -16.3559 -49.0135
LeftArm  -13.5409 8.40879 -23.2292
LeftForeArm  29.2345 -17.7218 -3.45362
LeftHand  -0.25398 0.0180481 5.50724
RightShoulder  6.61542 10.9518 39.6434
RightArm  -1.97786 -16.9517 34.6332
RightForeArm  7.56055 7.60178 8.65166
RightHand  -0.851989 0.647771 -16.3759
LeftUpLeg  2.40054 7.03543 -6.79672
LeftLeg  38.0019 7.83162 6.89408
LeftFoot  -28.0241 0.0444584 -0.831822
LeftToes  1.06244e-005 4.65855e-005 -8.18506e-006
437
root  -26.9076 37.4722 -3.38629 -33.4784 -75.169 21.8804
RightUpLeg  -13.008 -16.3278 -14.832
RightLeg  -3.23364 -23.9982 9.5869
RightFoot  0.394196 -2.17049 20.8043
RightToes  0.00048216 0.542163 -0.142577
Spine  34.3969 -2.06707 -0.11855
Spine1  8.89596 -2.06473 -0.70225
HEad  -7.28198 1.46754 -2.04034
LeftShoulder1  10.8708 -16.0714 -48.4826
LeftArm  -14.4081 7.76124 -22.8241
LeftForeArm  28.314 -19.0147 -3.3369
LeftHand  -0.25398 0.0180481 5.50724
RightShoulder  6.38308 10.6003 39.1607
RightArm  -3.88869 -19.4857 35.1395
RightForeArm  8.76138 8.62582 7.99894
RightHand  -0.564503 -0.55968 -13.5391
LeftUpLeg  0.675452 7.74996 -6.95576
LeftLeg  40.0354 7.04729 6.70474
LeftFoot  -26.9114 0.170908 0.0652892
LeftToes  1.06244e-005 4.65855e-005 -8.18506e-006
438
root  -25.6266 37.645 -3.3083 -32.4649 -76.0596 20.0606
RightUpLeg  -14.435 -19.4152 -13.7025
RightLeg  2.78836 -19.2614 6.94294
RightFoot  0.309947 -1.9778 19.2563
RightToes  0.00048216 0.542163 -0.142577
Spine  34.0356 -2.08226 -0.0338798
Spine1  9.00338 -1.99311 -1.05851
HEad  -6.01637 2.21286 -2.36418
LeftShoulder1  10.6804 -15.8474 -48.1817
LeftArm  -15.4316 7.82243 -22.3989
LeftForeArm  26.9354 -19.8757 -3.32158
LeftHand  -0.25398 0.0180481 5.50724
RightShoulder  6.12467 10.2357 38.5124
RightArm  -5.07138 -21.3118 35.3435
RightForeArm  8.45523 9.64478 7.56894
RightHand  -0.432008 -1.33752 -12.2163
LeftUpLeg  -0.676121 8.99141 -6.46531
LeftLeg  39.8052 6.58176 6.24577
LeftFoot  -25.0038 0.281099 1.10394
LeftToes  1.06244e-005 4.65855e-005 -8.18506e-006
439
root  -24.412 38.0148 -3.22992 -30.7489 -77.5646 17.9247
RightUpLeg  -17.6174 -27.7535 -9.36118
RightLeg  12.2998 -7.26338 1.62636
RightFoot  0.588906 -1.66364 15.854
RightToes  0.00048216 0.542163 -0.142577
Spine  33.5071 -2.21178 0.551955
Spine1  8.90445 -1.82582 -1.55524
HEad  -4.66728 3.42421 -2.9866
LeftShoulder1  10.4647 -15.5858 -47.8514
LeftArm  -16.614 8.55804 -22.2619
LeftForeArm  25.3316 -20.1351 -3.34062
LeftHand  -0.25398 0.0180481 5.50724
RightShoulder  5.95366 10.0124 38.0049
RightArm  -5.86793 -22.1222 34.9996
RightForeArm  7.52019 10.298 7.28803
RightHand  -0.408672 -1.58147 -12.2097
LeftUpLeg  -1.38515 10.2061 -5.86673
LeftLeg  37.5688 6.91191 6.05616
LeftFoot  -22.3657 0.38605 2.61686
LeftToes  1.06244e-005 4.65855e-005 -8.18506e-006
440
root  -23.2887 38.4994 -3.19374 -28.205 -79.3094 15.3327
RightUpLeg  -19.0799 -27.8578 -7.20796
RightLeg  20.8335 -2.43012 -1.73214
RightFoot  0.145234 -1.37301 13.6031
RightToes  0.00048216 0.542163 -0.142577
Spine  32.7913 -2.3404 1.10896
Spine1  8.54981 -1.68876 -2.0063
HEad  -3.30149 5.03971 -3.6675
LeftShoulder1  10.222 -15.2539 -47.5653
LeftArm  -17.6152 9.79 -22.1505
LeftForeArm  23.9926 -19.9889 -3.33815
LeftHand  -0.25398 0.0180481 5.50724
RightShoulder  5.85454 9.89969 37.6491
RightArm  -6.66607 -22.0731 34.3718
RightForeArm  7.05283 10.707 7.02528
RightHand  -0.432839 -1.38071 -12.3341
LeftUpLeg  -1.77434 11.1043 -5.19413
LeftLeg  34.2182 7.55401 5.86453
LeftFoot  -18.9216 0.362688 3.73743
LeftToes  1.06244e-005 4.65855e-005 -8.18506e-006
441
root  -22.2395 39.0291 -3.20239 -24.8039 -81.2077 12.3685
RightUpLeg  -18.4602 -20.5817 -8.07285
RightLeg  29.2203 -4.70915 -3.05116
RightFoot  -0.602308 -1.22009 12.8899
RightToes  0.00048216 0.542163 -0.142577
Spine  31.6934 -2.28947 1.37916
Spine1  7.88189 -1.55225 -2.1447
HEad  -1.71175 6.83461 -4.13329
LeftShoulder1  9.98033 -14.8651 -47.4219
LeftArm  -18.0569 11.5493 -21.8488
LeftForeArm  23.6952 -19.7814 -3.29428
LeftHand  -0.25398 0.0180481 5.50724
RightShoulder  5.69369 9.70825 37.0825
RightArm  -7.43011 -21.6177 33.9263
RightForeArm  6.1098 11.1508 6.80775
RightHand  -0.486262 -1.01114 -12.7515
LeftUpLeg  -2.1315 12.3183 -4.33957
LeftLeg  30.0781 7.86041 5.25541
LeftFoot  -15.1996 0.238513 4.36321
LeftToes  1.06244e-005 4.65855e-005 -8.18506e-006
